# xmcd
#
# Track frame offsets:
#	150
#	15727
#	33063
#	49133
#	67712
#	83858
#	102525
#	119249
#	135304
#	150875
#	169007
#	187755
#	203444
#	219660
#	231622
#
# Disc length: 3342 seconds
#
# Revision: 1
# Processed by: cddbd v1.5.2PL0 Copyright (c) Steve Scherf et al.
# Submitted via: audiograbber 1.83.01
#
DISCID=be0d0c0f
DTITLE=Various Artist - CBCDG60194
DYEAR=2000
DGENRE=Karaoke
TTITLE0=Yankee Grey - Another Nine Minutes
TTITLE1=The Wilkinsons - Jimmy's Got A Girl Friend
TTITLE2=George Strait - The best Day
TTITLE3=Jennifer Day - The Fun Of Your Love
TTITLE4=Jerry Kilgore - The Look
TTITLE5=Trisha Yearwood - Real Live Woman
TTITLE6=John Michael Montgomery - Nothing Catches Jesus By Surprise
TTITLE7=Tara Lyn Hart - Mine All Mine
TTITLE8=Doug Stone - Take A Letter Maria
TTITLE9=Chalee Tennison - Just Because She Lives There
TTITLE10=Vince Gill - Let's Make Sure We Kiss Goodbye
TTITLE11=Faith Hill - The Way You Love Me
TTITLE12=Andy Griggs - She's More
TTITLE13=Dixie Chicks - Some Days You Gotta Dance
TTITLE14=Shania Twain - Rock This Country
EXTD=
EXTT0=
EXTT1=
EXTT2=
EXTT3=
EXTT4=
EXTT5=
EXTT6=
EXTT7=
EXTT8=
EXTT9=
EXTT10=
EXTT11=
EXTT12=
EXTT13=
EXTT14=
PLAYORDER=
